Coordinates
version=1
nRows=16
nColumns=33
inDegrees=yes

Units are S.I. units (second, meters, Newtons, ...)
Angles are in degrees.

endheader
time	ground_thorax_rot_x	ground_thorax_rot_y	ground_thorax_rot_z	ground_thorax_tx	ground_thorax_ty	ground_thorax_tz	clav_prot_r	clav_elev_r	scapula_abduction_r	scapula_elevation_r	scapula_upward_rot_r	scapula_winging_r	shoulder_elv_r	plane_of_elev_r	axial_rot_r	elbow_flexion_r	pro_sup_r	wrist_flex_r	wrist_dev_r	clav_prot_l	clav_elev_l	scapula_abduction_l	scapula_elevation_l	scapula_upward_rot_l	scapula_winging_l	shoulder_elv_l	plane_of_elev_l	axial_rot_l	elbow_flexion_l	pro_sup_l	wrist_flex_l	wrist_dev_l
      2.26000000	    -39.92434200	     -7.58781314	      4.52857057	    -46.68347236	    796.03344505	      7.85624335	     -4.90627304	    -45.00000000	     45.00000000	    -45.00000000	     24.46721165	  -3349.79122955	  -2459.61560292	     19.67585369	   -179.99999979	    726.26952519	    252.54306238	     14.88107632	     11.48735718	     16.76939820	     39.63127876	    -45.00000000	    -39.09479640	    -29.19757979	   2957.81886612	  -4614.13422126	     24.66704233	    -23.27339006	   1444.77237422	     21.05510381	     13.73477709	    -18.15388793
      2.27000000	    -39.51731900	     -8.39520924	      5.15518493	    -44.91113641	    795.00133021	      8.05679217	     -4.01240011	    -45.00000000	     45.00000000	    -45.00000000	     21.99147621	  -3348.97804350	  -2459.70934800	     19.74450303	   -179.99999979	    726.24169621	    250.59138637	     14.92358982	     11.68570841	     16.67498256	     38.97340871	    -45.00000000	    -38.60979517	    -30.15630658	   2957.93167947	  -4613.92591254	     24.54358289	    -24.24397538	   1444.81922052	     20.70249879	     13.51023037	    -18.01606745
      2.28000000	    -39.30088639	     -8.42349105	      4.93570049	    -43.53289103	    794.21723472	      8.19742944	     -4.00306607	    -45.00000000	     45.00000000	    -45.00000000	     21.84037150	  -3348.73788246	  -2459.71436123	     19.62833908	   -179.99999979	    726.41508171	    248.65394863	     14.70491439	     11.60848518	     16.72943425	     38.93832516	    -45.00000000	    -38.39552545	    -29.81393231	   2957.88673233	  -4614.02806921	     24.43242676	    -24.70808015	   1444.70618643	     20.45167281	     13.39240530	    -17.98204204
      2.29000000	    -39.12281969	     -8.57391336	      4.76455562	    -42.57222455	    793.63566574	      8.26424656	     -4.06925486	    -45.00000000	     45.00000000	    -45.00000000	     21.66038053	  -3348.47152121	  -2459.66150366	     19.43994541	   -179.99999979	    726.51189418	    247.23893895	     14.44100425	     11.44838851	     16.71812414	     38.60923962	    -45.00000000	    -38.24146590	    -29.59869898	   2957.81429631	  -4613.97052313	     24.19715004	    -25.00306602	   1444.66169715	     20.36497312	     13.19056457	    -17.99821707
      2.30000000	    -38.95633698	     -8.75260187	      4.66686394	    -42.04907742	    793.21755043	      8.24771370	     -4.06078815	    -45.00000000	     45.00000000	    -45.00000000	     21.42595340	  -3348.26708390	  -2459.55803483	     19.34115438	   -179.99999979	    726.64330264	    246.15871210	     14.21718486	     11.31736085	     16.62581857	     38.81597384	    -45.00000000	    -38.03378963	    -29.38911267	   2957.98499103	  -4613.94898073	     24.06326140	    -25.08066138	   1444.72669747	     20.30930197	     12.82213188	    -18.03142995
      2.31000000	    -38.86179567	     -8.60329547	      4.25641453	    -41.97479679	    792.93123267	      8.14295355	     -4.00632222	    -45.00000000	     45.00000000	    -45.00000000	     21.34166636	  -3348.21134940	  -2459.62184214	     19.45597235	   -179.99999979	    726.76879605	    245.23407455	     14.31900829	     11.39199132	     16.60593496	     38.85082486	    -45.00000000	    -38.11695561	    -29.28689333	   2957.90040129	  -4613.91602846	     24.22276433	    -25.26100957	   1444.66902816	     20.35124688	     12.80422945	    -18.03345599
      2.32000000	    -38.78188985	     -8.70881883	      4.12311096	    -42.34531274	    792.74327866	      7.94663897	     -4.04698426	    -45.00000000	     45.00000000	    -45.00000000	     21.26808219	  -3348.14423071	  -2459.44519569	     19.35262880	   -179.99999979	    726.84157476	    244.42812277	     14.14443840	     11.27694042	     16.52874161	     38.94289084	    -45.00000000	    -38.25079435	    -29.02469263	   2957.95385411	  -4614.01325417	     24.16941120	    -25.20480886	   1444.60037136	     20.35393768	     12.61539821	    -18.04608298
      2.33000000	    -38.78208330	     -8.62326884	      3.83794831	    -43.15316382	    792.63441628	      7.66225278	     -4.03066520	    -45.00000000	     45.00000000	    -45.00000000	     21.27472199	  -3348.28838561	  -2459.40058142	     19.41411547	   -179.99999979	    726.99090555	    243.86062667	     14.29073127	     11.35572743	     16.55207512	     39.35351430	    -45.00000000	    -38.26946860	    -29.13011438	   2957.99947955	  -4613.97926037	     24.27149514	    -25.07369455	   1444.55602645	     20.30503619	     12.41492409	    -18.04075159
      2.34000000	    -38.81739015	     -8.84129124	      3.79631304	    -44.37755340	    792.58590483	      7.29661191	     -3.76939009	    -45.00000000	     45.00000000	    -45.00000000	     20.71506159	  -3348.15411555	  -2459.28141969	     19.32380031	   -179.99999979	    726.97727319	    243.23295030	     14.24089642	     11.32562341	     16.38105684	     39.38168094	    -45.00000000	    -38.44885983	    -29.19645925	   2958.15010849	  -4613.84204942	     24.10128813	    -25.34106945	   1444.58582923	     20.27514878	     12.39782274	    -18.06026842
      2.35000000	    -38.83492818	     -8.92358174	      3.62863256	    -45.99167381	    792.58257053	      6.86173277	     -3.72257849	    -45.00000000	     45.00000000	    -45.00000000	     20.53838796	  -3348.16033883	  -2459.18034433	     19.25721275	   -179.99999979	    726.92905179	    242.92061275	     14.24181691	     11.27907715	     16.40616101	     39.41197955	    -45.00000000	    -38.69255613	    -29.29697179	   2958.23628679	  -4613.81518589	     24.02626324	    -25.15133391	   1444.58892398	     20.06327308	     12.42979013	    -18.09177764
      2.36000000	    -38.75189025	     -8.86057051	      3.40390636	    -47.96423732	    792.61633511	      6.37208110	     -3.77928688	    -45.00000000	     45.00000000	    -45.00000000	     20.48784581	  -3348.28145937	  -2458.87233479	     19.43654048	   -179.99999979	    727.10913330	    242.89804950	     14.40668802	     11.33367314	     16.48274353	     38.84430963	    -45.00000000	    -38.60691111	    -28.80227776	   2958.73440565	  -4614.24177917	     24.26395763	    -24.79313668	   1444.22763749	     19.81955026	     12.41119667	    -18.04667502
      2.37000000	    -38.63489922	     -8.95705827	      3.16322473	    -50.27931357	    792.68553849	      5.84097970	     -3.61843436	    -45.00000000	     45.00000000	    -45.00000000	     20.24572509	  -3348.06371648	  -2458.58624789	     19.46204505	   -179.99999979	    727.14517487	    243.02877191	     14.42787856	     11.37535654	     16.17066742	     39.02368116	    -45.00000000	    -38.57460502	    -28.88956930	   2958.82685736	  -4614.02253302	     23.97098924	    -24.97727998	   1444.22780731	     19.61673439	     12.48242832	    -18.07324002
      2.38000000	    -39.01086574	     -9.26334374	      3.53822433	    -52.90371478	    792.79093799	      5.28558019	     -3.30449534	    -45.00000000	     45.00000000	    -45.00000000	     19.53429432	  -3348.55526628	  -2458.55429862	     19.28526015	   -179.99999979	    727.03778442	    243.45421433	     14.39887771	     11.30313011	     16.89926904	     40.24536032	    -45.00000000	    -39.61135787	    -30.51547008	   2958.46070746	  -4613.78115512	     24.06177710	    -24.81517650	   1444.46162836	     19.01214078	     12.24392001	    -18.05672120
      2.39000000	    -39.03736725	     -9.63233311	      3.78370106	    -55.82635857	    792.94100980	      4.71615188	     -3.05336793	    -45.00000000	     45.00000000	    -45.00000000	     18.93003133	  -3348.89317113	  -2458.27237182	     19.46222167	   -179.99999979	    727.04197055	    244.28888457	     14.51742118	     11.31051030	     17.53803084	     40.15763037	    -45.00000000	    -39.97847195	    -31.63237503	   2958.60208293	  -4613.80900342	     24.30543003	    -24.24325552	   1444.34704519	     18.28893736	     12.21247687	    -18.02323799
      2.40000000	    -39.11905858	     -9.75103075	      3.85384419	    -59.02920342	    793.14415253	      4.14057198	     -2.85633869	    -45.00000000	     45.00000000	    -45.00000000	     18.28328216	  -3349.06201241	  -2458.04582497	     19.43373431	   -179.99999979	    726.92422344	    245.45001800	     14.60484453	     11.26751600	     17.81722175	     40.12337381	    -45.00000000	    -40.32149956	    -32.30523922	   2958.67739287	  -4613.70075413	     24.32610647	    -24.02969319	   1444.42928891	     17.74619960	     12.26096158	    -18.08692785
      2.41000000	    -39.19852686	     -9.35477902	      3.15831094	    -62.50630133	    793.40868907	      3.56202817	     -2.89875119	    -45.00000000	     45.00000000	    -45.00000000	     18.96077763	  -3348.95851533	  -2457.62061151	     19.13758405	   -179.99999979	    726.86827499	    246.26475809	     14.61068047	     11.23925360	     16.72695974	     40.94080261	    -45.00000000	    -40.48849438	    -31.49093711	   2959.03595764	  -4613.76496091	     23.99026487	    -25.60957567	   1444.64021649	     17.85881585	     12.13584934	    -18.18891210
